<svg width="142" height="25" viewBox="0 0 142 25" fill="none" xmlns="http://www.w3.org/2000/svg">
<path d="M18.5469 1.75V24.5H13.8594L4.71875 9.25V24.5H0.03125V1.75H4.71875L13.875 17.0156V1.75H18.5469ZM32.3438 20.4531V7.59375H36.8438V24.5H32.6094L32.3438 20.4531ZM32.8438 16.9844L34.1719 16.9531C34.1719 18.0781 34.0417 19.125 33.7812 20.0938C33.5208 21.0521 33.1302 21.8854 32.6094 22.5938C32.0885 23.2917 31.4323 23.8385 30.6406 24.2344C29.849 24.6198 28.9167 24.8125 27.8438 24.8125C27.0208 24.8125 26.2604 24.6979 25.5625 24.4688C24.875 24.2292 24.2812 23.8594 23.7812 23.3594C23.2917 22.849 22.9062 22.1979 22.625 21.4062C22.3542 20.6042 22.2188 19.6406 22.2188 18.5156V7.59375H26.7188V18.5469C26.7188 19.0469 26.776 19.4688 26.8906 19.8125C27.0156 20.1562 27.1875 20.4375 27.4062 20.6562C27.625 20.875 27.8802 21.0312 28.1719 21.125C28.474 21.2188 28.8073 21.2656 29.1719 21.2656C30.099 21.2656 30.8281 21.0781 31.3594 20.7031C31.901 20.3281 32.2812 19.8177 32.5 19.1719C32.7292 18.5156 32.8438 17.7865 32.8438 16.9844ZM48.5625 7.59375V10.7812H38.7188V7.59375H48.5625ZM41.1562 3.42188H45.6562V19.4062C45.6562 19.8958 45.7188 20.2708 45.8438 20.5312C45.9792 20.7917 46.1771 20.974 46.4375 21.0781C46.6979 21.1719 47.026 21.2188 47.4219 21.2188C47.7031 21.2188 47.9531 21.2083 48.1719 21.1875C48.401 21.1562 48.5938 21.125 48.75 21.0938L48.7656 24.4062C48.3802 24.5312 47.9635 24.6302 47.5156 24.7031C47.0677 24.776 46.5729 24.8125 46.0312 24.8125C45.0417 24.8125 44.1771 24.651 43.4375 24.3281C42.7083 23.9948 42.1458 23.4635 41.75 22.7344C41.3542 22.0052 41.1562 21.0469 41.1562 19.8594V3.42188ZM55.625 11.2812V24.5H51.125V7.59375H55.3594L55.625 11.2812ZM60.7188 7.48438L60.6406 11.6562C60.4219 11.625 60.1562 11.599 59.8438 11.5781C59.5417 11.5469 59.2656 11.5312 59.0156 11.5312C58.3802 11.5312 57.8281 11.6146 57.3594 11.7812C56.901 11.9375 56.5156 12.1719 56.2031 12.4844C55.901 12.7969 55.6719 13.1771 55.5156 13.625C55.3698 14.0729 55.2865 14.5833 55.2656 15.1562L54.3594 14.875C54.3594 13.7812 54.4688 12.776 54.6875 11.8594C54.9062 10.9323 55.224 10.125 55.6406 9.4375C56.0677 8.75 56.5885 8.21875 57.2031 7.84375C57.8177 7.46875 58.5208 7.28125 59.3125 7.28125C59.5625 7.28125 59.8177 7.30208 60.0781 7.34375C60.3385 7.375 60.5521 7.42188 60.7188 7.48438ZM67.5938 7.59375V24.5H63.0781V7.59375H67.5938ZM62.7969 3.1875C62.7969 2.53125 63.026 1.98958 63.4844 1.5625C63.9427 1.13542 64.5573 0.921875 65.3281 0.921875C66.0885 0.921875 66.6979 1.13542 67.1562 1.5625C67.625 1.98958 67.8594 2.53125 67.8594 3.1875C67.8594 3.84375 67.625 4.38542 67.1562 4.8125C66.6979 5.23958 66.0885 5.45312 65.3281 5.45312C64.5573 5.45312 63.9427 5.23958 63.4844 4.8125C63.026 4.38542 62.7969 3.84375 62.7969 3.1875ZM118.844 24.8125C117.531 24.8125 116.354 24.6042 115.312 24.1875C114.271 23.7604 113.385 23.1719 112.656 22.4219C111.938 21.6719 111.385 20.8021 111 19.8125C110.615 18.8125 110.422 17.75 110.422 16.625V16C110.422 14.7188 110.604 13.5469 110.969 12.4844C111.333 11.4219 111.854 10.5 112.531 9.71875C113.219 8.9375 114.052 8.33854 115.031 7.92188C116.01 7.49479 117.115 7.28125 118.344 7.28125C119.542 7.28125 120.604 7.47917 121.531 7.875C122.458 8.27083 123.234 8.83333 123.859 9.5625C124.495 10.2917 124.974 11.1667 125.297 12.1875C125.62 13.1979 125.781 14.3229 125.781 15.5625V17.4375H112.344V14.4375H121.359V14.0938C121.359 13.4688 121.245 12.9115 121.016 12.4219C120.797 11.9219 120.464 11.526 120.016 11.2344C119.568 10.9427 118.995 10.7969 118.297 10.7969C117.703 10.7969 117.193 10.9271 116.766 11.1875C116.339 11.4479 115.99 11.8125 115.719 12.2812C115.458 12.75 115.26 13.3021 115.125 13.9375C115 14.5625 114.938 15.25 114.938 16V16.625C114.938 17.3021 115.031 17.9271 115.219 18.5C115.417 19.0729 115.693 19.5677 116.047 19.9844C116.411 20.401 116.849 20.724 117.359 20.9531C117.88 21.1823 118.469 21.2969 119.125 21.2969C119.938 21.2969 120.693 21.1406 121.391 20.8281C122.099 20.5052 122.708 20.0208 123.219 19.375L125.406 21.75C125.052 22.2604 124.568 22.75 123.953 23.2188C123.349 23.6875 122.62 24.0729 121.766 24.375C120.911 24.6667 119.938 24.8125 118.844 24.8125ZM137.484 19.8281C137.484 19.5052 137.391 19.2135 137.203 18.9531C137.016 18.6927 136.667 18.4531 136.156 18.2344C135.656 18.0052 134.932 17.7969 133.984 17.6094C133.13 17.4219 132.333 17.1875 131.594 16.9062C130.865 16.6146 130.229 16.2656 129.688 15.8594C129.156 15.4531 128.74 14.974 128.438 14.4219C128.135 13.8594 127.984 13.2188 127.984 12.5C127.984 11.7917 128.135 11.125 128.438 10.5C128.75 9.875 129.193 9.32292 129.766 8.84375C130.349 8.35417 131.057 7.97396 131.891 7.70312C132.734 7.42188 133.682 7.28125 134.734 7.28125C136.203 7.28125 137.464 7.51562 138.516 7.98438C139.578 8.45312 140.391 9.09896 140.953 9.92188C141.526 10.7344 141.812 11.6615 141.812 12.7031H137.312C137.312 12.2656 137.219 11.875 137.031 11.5312C136.854 11.1771 136.573 10.901 136.188 10.7031C135.812 10.4948 135.323 10.3906 134.719 10.3906C134.219 10.3906 133.786 10.4792 133.422 10.6562C133.057 10.8229 132.776 11.0521 132.578 11.3438C132.391 11.625 132.297 11.9375 132.297 12.2812C132.297 12.5417 132.349 12.776 132.453 12.9844C132.568 13.1823 132.75 13.3646 133 13.5312C133.25 13.6979 133.573 13.8542 133.969 14C134.375 14.1354 134.875 14.2604 135.469 14.375C136.688 14.625 137.776 14.9531 138.734 15.3594C139.693 15.7552 140.453 16.2969 141.016 16.9844C141.578 17.6615 141.859 18.5521 141.859 19.6562C141.859 20.4062 141.693 21.0938 141.359 21.7188C141.026 22.3438 140.547 22.8906 139.922 23.3594C139.297 23.8177 138.547 24.1771 137.672 24.4375C136.807 24.6875 135.833 24.8125 134.75 24.8125C133.177 24.8125 131.844 24.5312 130.75 23.9688C129.667 23.4062 128.844 22.6927 128.281 21.8281C127.729 20.9531 127.453 20.0573 127.453 19.1406H131.719C131.74 19.7552 131.896 20.25 132.188 20.625C132.49 21 132.87 21.2708 133.328 21.4375C133.797 21.6042 134.302 21.6875 134.844 21.6875C135.427 21.6875 135.911 21.6094 136.297 21.4531C136.682 21.2865 136.974 21.0677 137.172 20.7969C137.38 20.5156 137.484 20.1927 137.484 19.8281Z" fill="black"/>
<path d="M80.5 14.5156H74.6562L74.625 11.2969H79.5312C80.3958 11.2969 81.1042 11.1875 81.6562 10.9688C82.2083 10.7396 82.6198 10.4115 82.8906 9.98438C83.1719 9.54688 83.3125 9.01562 83.3125 8.39062C83.3125 7.68229 83.1771 7.10938 82.9062 6.67188C82.6458 6.23438 82.2344 5.91667 81.6719 5.71875C81.1198 5.52083 80.4062 5.42188 79.5312 5.42188H76.2812V24.5H71.5938V1.75H79.5312C80.8542 1.75 82.0365 1.875 83.0781 2.125C84.1302 2.375 85.0208 2.75521 85.75 3.26562C86.4792 3.77604 87.0365 4.42188 87.4219 5.20312C87.8073 5.97396 88 6.89062 88 7.95312C88 8.89062 87.7865 9.75521 87.3594 10.5469C86.9427 11.3385 86.2812 11.9844 85.375 12.4844C84.4792 12.9844 83.3073 13.2604 81.8594 13.3125L80.5 14.5156ZM80.2969 24.5H73.375L75.2031 20.8438H80.2969C81.1198 20.8438 81.7917 20.7135 82.3125 20.4531C82.8333 20.1823 83.2188 19.8177 83.4688 19.3594C83.7188 18.901 83.8438 18.375 83.8438 17.7812C83.8438 17.1146 83.7292 16.5365 83.5 16.0469C83.2812 15.5573 82.9271 15.1823 82.4375 14.9219C81.9479 14.651 81.3021 14.5156 80.5 14.5156H75.9844L76.0156 11.2969H81.6406L82.7188 12.5625C84.1042 12.5417 85.2188 12.7865 86.0625 13.2969C86.9167 13.7969 87.5365 14.4479 87.9219 15.25C88.3177 16.0521 88.5156 16.9115 88.5156 17.8281C88.5156 19.2865 88.1979 20.5156 87.5625 21.5156C86.9271 22.5052 85.9948 23.25 84.7656 23.75C83.5469 24.25 82.0573 24.5 80.2969 24.5ZM96.5 7.59375V24.5H91.9844V7.59375H96.5ZM91.7031 3.1875C91.7031 2.53125 91.9323 1.98958 92.3906 1.5625C92.849 1.13542 93.4635 0.921875 94.2344 0.921875C94.9948 0.921875 95.6042 1.13542 96.0625 1.5625C96.5312 1.98958 96.7656 2.53125 96.7656 3.1875C96.7656 3.84375 96.5312 4.38542 96.0625 4.8125C95.6042 5.23958 94.9948 5.45312 94.2344 5.45312C93.4635 5.45312 92.849 5.23958 92.3906 4.8125C91.9323 4.38542 91.7031 3.84375 91.7031 3.1875ZM108.5 7.59375V10.7812H98.6562V7.59375H108.5ZM101.094 3.42188H105.594V19.4062C105.594 19.8958 105.656 20.2708 105.781 20.5312C105.917 20.7917 106.115 20.974 106.375 21.0781C106.635 21.1719 106.964 21.2188 107.359 21.2188C107.641 21.2188 107.891 21.2083 108.109 21.1875C108.339 21.1562 108.531 21.125 108.688 21.0938L108.703 24.4062C108.318 24.5312 107.901 24.6302 107.453 24.7031C107.005 24.776 106.51 24.8125 105.969 24.8125C104.979 24.8125 104.115 24.651 103.375 24.3281C102.646 23.9948 102.083 23.4635 101.688 22.7344C101.292 22.0052 101.094 21.0469 101.094 19.8594V3.42188Z" fill="#FFC633"/>
</svg>
